# xmcd
#
# Track frame offsets: 
#        185
#        21815
#        40045
#        63390
#        79880
#        98297
#        118042
#        136570
#
# Disc length: 2166 seconds
#
# Revision: 1
# Processed by: cddbd v1.5.2PL0 Copyright (c) Steve Scherf et al.
# Submitted via: ExactAudioCopy v1.0b3
#
DISCID=55087408
DTITLE=Tyrone Davis - You Stay On My Mind
DYEAR=1994
DGENRE=Soul
TTITLE0=You Stay On My Mind
TTITLE1=Let Me Be Your Pacifier
TTITLE2=I Found Myself When I Lost You
TTITLE3=All Because Of Your Love
TTITLE4=You Can Win If You Want
TTITLE5=I Won't Let Go
TTITLE6=Something Goes About A Woman
TTITLE7=You're My Heart, You're My Soul
EXTD=
EXTT0=
EXTT1=
EXTT2=
EXTT3=
EXTT4=
EXTT5=
EXTT6=
EXTT7=
PLAYORDER=
